REM DIRINDEX 1\2\6,1\2\7,1\2\8,1\3\9,1\3\10,1\3\11,1\4\12,1\4\13,1\4\14,1\5\15,1\5\16,1\5\17,1\5\18
REM DIRNAME cjc019,folder01,folder02,folder03,folder04,folder05,folder06,folder07,folder08,folder09,folder10,folder11,folder12,folder13,folder14,folder15,folder16,folder17
TITLE ""
FILE "2Q_t_0826-0843.mp3" MP3
  TRACK 01 AUDIO
    TITLE "13:cjc019_3713"
    INDEX 01 00:00:00
  TRACK 02 AUDIO
    TITLE "0:"
    INDEX 01 00:00:72
  TRACK 03 AUDIO
    TITLE "14:cjc019_3714"
    INDEX 01 00:01:58
  TRACK 04 AUDIO
    TITLE "0:"
    INDEX 01 00:03:25
  TRACK 05 AUDIO
    TITLE "13:cjc019_3715"
    INDEX 01 00:03:72
  TRACK 06 AUDIO
    TITLE "0:"
    INDEX 01 00:05:12
  TRACK 07 AUDIO
    TITLE "14:cjc019_3716"
    INDEX 01 00:05:67
  TRACK 08 AUDIO
    TITLE "0:"
    INDEX 01 00:07:21
  TRACK 09 AUDIO
    TITLE "13:cjc019_3717"
    INDEX 01 00:07:72
  TRACK 10 AUDIO
    TITLE "0:"
    INDEX 01 00:09:16
  TRACK 11 AUDIO
    TITLE "14:cjc019_3718"
    INDEX 01 00:09:71
  TRACK 12 AUDIO
    TITLE "0:"
    INDEX 01 00:13:06
  TRACK 13 AUDIO
    TITLE "13:cjc019_3719"
    INDEX 01 00:13:61
  TRACK 14 AUDIO
    TITLE "0:"
    INDEX 01 00:15:15
  TRACK 15 AUDIO
    TITLE "14:cjc019_3720"
    INDEX 01 00:15:66
  TRACK 16 AUDIO
    TITLE "0:"
    INDEX 01 00:19:03
  TRACK 17 AUDIO
    TITLE "13:cjc019_3721"
    INDEX 01 00:19:60
  TRACK 18 AUDIO
    TITLE "0:"
    INDEX 01 00:21:09
  TRACK 19 AUDIO
    TITLE "14:cjc019_3722"
    INDEX 01 00:21:62
  TRACK 20 AUDIO
    TITLE "0:"
    INDEX 01 00:23:28
  TRACK 21 AUDIO
    TITLE "13:cjc019_3723"
    INDEX 01 00:24:06
  TRACK 22 AUDIO
    TITLE "0:"
    INDEX 01 00:25:33
  TRACK 23 AUDIO
    TITLE "14:cjc019_3724"
    INDEX 01 00:26:13
  TRACK 24 AUDIO
    TITLE "0:"
    INDEX 01 00:27:67
  TRACK 25 AUDIO
    TITLE "13:cjc019_3725"
    INDEX 01 00:28:43
  TRACK 26 AUDIO
    TITLE "0:"
    INDEX 01 00:29:64
  TRACK 27 AUDIO
    TITLE "14:cjc019_3726"
    INDEX 01 00:30:44
  TRACK 28 AUDIO
    TITLE "0:"
    INDEX 01 00:33:48
  TRACK 29 AUDIO
    TITLE "13:cjc019_3727"
    INDEX 01 00:34:24
  TRACK 30 AUDIO
    TITLE "0:"
    INDEX 01 00:35:66
  TRACK 31 AUDIO
    TITLE "14:cjc019_3728"
    INDEX 01 00:36:42
  TRACK 32 AUDIO
    TITLE "0:"
    INDEX 01 00:38:06
  TRACK 33 AUDIO
    TITLE "13:cjc019_3729"
    INDEX 01 00:38:65
  TRACK 34 AUDIO
    TITLE "0:"
    INDEX 01 00:40:21
  TRACK 35 AUDIO
    TITLE "14:cjc019_3730"
    INDEX 01 00:40:70
  TRACK 36 AUDIO
    TITLE "0:"
    INDEX 01 00:44:03
  TRACK 37 AUDIO
    TITLE "13:cjc019_3731"
    INDEX 01 00:44:54
  TRACK 38 AUDIO
    TITLE "0:"
    INDEX 01 00:45:69
  TRACK 39 AUDIO
    TITLE "14:cjc019_3732"
    INDEX 01 00:46:53
  TRACK 40 AUDIO
    TITLE "0:"
    INDEX 01 00:49:43
  TRACK 41 AUDIO
    TITLE "13:cjc019_3733"
    INDEX 01 00:50:19
  TRACK 42 AUDIO
    TITLE "0:"
    INDEX 01 00:51:34
  TRACK 43 AUDIO
    TITLE "14:cjc019_3734"
    INDEX 01 00:52:18
  TRACK 44 AUDIO
    TITLE "0:"
    INDEX 01 00:53:55
  TRACK 45 AUDIO
    TITLE "13:cjc019_3735"
    INDEX 01 00:54:36
  TRACK 46 AUDIO
    TITLE "0:"
    INDEX 01 00:56:00
  TRACK 47 AUDIO
    TITLE "14:cjc019_3736"
    INDEX 01 00:56:55
  TRACK 48 AUDIO
    TITLE "0:"
    INDEX 01 00:59:36
  TRACK 49 AUDIO
    TITLE "13:cjc019_3737"
    INDEX 01 01:00:10
  TRACK 50 AUDIO
    TITLE "0:"
    INDEX 01 01:01:15
  TRACK 51 AUDIO
    TITLE "14:cjc019_3738"
    INDEX 01 01:01:74
  TRACK 52 AUDIO
    TITLE "0:"
    INDEX 01 01:08:52
  TRACK 53 AUDIO
    TITLE "13:cjc019_3739"
    INDEX 01 01:09:32
  TRACK 54 AUDIO
    TITLE "0:"
    INDEX 01 01:10:57
  TRACK 55 AUDIO
    TITLE "14:cjc019_3740"
    INDEX 01 01:11:41
  TRACK 56 AUDIO
    TITLE "0:"
    INDEX 01 01:16:16
  TRACK 57 AUDIO
    TITLE "13:cjc019_3741"
    INDEX 01 01:16:71
  TRACK 58 AUDIO
    TITLE "0:"
    INDEX 01 01:17:67
  TRACK 59 AUDIO
    TITLE "14:cjc019_3742"
    INDEX 01 01:18:49
  TRACK 60 AUDIO
    TITLE "0:"
    INDEX 01 01:21:45
  TRACK 61 AUDIO
    TITLE "13:cjc019_3743"
    INDEX 01 01:22:31
  TRACK 62 AUDIO
    TITLE "0:"
    INDEX 01 01:23:40
  TRACK 63 AUDIO
    TITLE "14:cjc019_3744"
    INDEX 01 01:24:20
  TRACK 64 AUDIO
    TITLE "0:"
    INDEX 01 01:26:07
  TRACK 65 AUDIO
    TITLE "13:cjc019_3745"
    INDEX 01 01:26:58
  TRACK 66 AUDIO
    TITLE "0:"
    INDEX 01 01:28:16
  TRACK 67 AUDIO
    TITLE "14:cjc019_3746"
    INDEX 01 01:29:01
  TRACK 68 AUDIO
    TITLE "0:"
    INDEX 01 01:32:45
  TRACK 69 AUDIO
    TITLE "13:cjc019_3747"
    INDEX 01 01:33:15
  TRACK 70 AUDIO
    TITLE "0:"
    INDEX 01 01:34:36
  TRACK 71 AUDIO
    TITLE "14:cjc019_3748"
    INDEX 01 01:35:12
  TRACK 72 AUDIO
    TITLE "0:"
    INDEX 01 01:36:21
